$MeshFormat
4.1 0 8
$EndMeshFormat
$PhysicalNames
2
2 1 "Outside"
2 2 "o Inside"
$EndPhysicalNames
$Entities
202 202 2 0
1 0 0 0 0 
2 1050 0 0 0 
3 1050 200 0 0 
4 0 200 0 0 
5 44.5 155.5 0 0 
6 30.5 38.5 0 0 
7 52 38.5 0 0 
8 61.25 133.75 0 0 
9 91.5 38.5 0 0 
10 112.5 38.5 0 0 
11 142.5 133.25 0 0 
12 153.25 38.5 0 0 
13 176 38.75 0 0 
14 161.5 155.75 0 0 
15 129.5 155.5 0 0 
16 103.5 71.75 0 0 
17 76 155.75 0 0 
18 194.25 124.75 0 0 
19 194.25 38.5 0 0 
20 216 38.5 0 0 
21 216.25 124.5 0 0 
22 201.75 164.75 0 0 
23 197 162.5 0 0 
24 194.25 159.75 0 0 
25 192.25 156.5 0 0 
26 191.5 153.5 0 0 
27 191.5 149.75 0 0 
28 192.25 146.75 0 0 
29 195 142.5 0 0 
30 198.5 139.75 0 0 
31 201.75 138.5 0 0 
32 208.5 138.5 0 0 
33 213 140.5 0 0 
34 217.25 144.75 0 0 
35 219 150.25 0 0 
36 218.5 155.75 0 0 
37 215.5 160.75 0 0 
38 211.75 163.5 0 0 
39 208.5 164.75 0 0 
40 308.5 121 0 0 
41 305 123.5 0 0 
42 299.25 125.75 0 0 
43 294.75 126.5 0 0 
44 286.25 126.5 0 0 
45 281.75 125.75 0 0 
46 276 123.75 0 0 
47 269.5 119.75 0 0 
48 266.25 116.75 0 0 
49 261.25 110.25 0 0 
50 261.75 124.75 0 0 
51 241.25 124.75 0 0 
52 241.25 38.5 0 0 
53 263.25 38.75 0 0 
54 263.25 83 0 0 
55 264.5 90.25 0 0 
56 266.75 96 0 0 
57 270.75 102 0 0 
58 276.25 106.5 0 0 
59 282.25 108.25 0 0 
60 288.25 107.5 0 0 
61 290 106.5 0 0 
62 293 103 0 0 
63 294.25 99 0 0 
64 294.5 38.5 0 0 
65 316.5 38.75 0 0 
66 316.25 104 0 0 
67 315.25 109.5 0 0 
68 313.5 114.25 0 0 
69 405.5 155.75 0 0 
70 341.25 155.5 0 0 
71 341.5 38.5 0 0 
72 363 38.25 0 0 
73 363.75 39 0 0 
74 363.5 86.5 0 0 
75 364 87.25 0 0 
76 402.75 87.75 0 0 
77 402.75 104.75 0 0 
78 402 105.75 0 0 
79 364.5 105.5 0 0 
80 363.75 106 0 0 
81 363.5 135.75 0 0 
82 364.25 136.75 0 0 
83 405.25 136.75 0 0 
84 423.5 155.75 0 0 
85 423.25 38.75 0 0 
86 489.5 38.5 0 0 
87 489.75 57.25 0 0 
88 489.25 57.75 0 0 
89 446.5 57.5 0 0 
90 445.5 58.5 0 0 
91 445.5 88.5 0 0 
92 446 89.25 0 0 
93 486.25 89.75 0 0 
94 486.25 106.75 0 0 
95 485.75 107.5 0 0 
96 446.5 107.5 0 0 
97 445.75 108 0 0 
98 445.5 136.25 0 0 
99 446.25 137.25 0 0 
100 489.75 137.5 0 0 
101 489.75 155.5 0 0 
102 519.5 155.5 0 0 
103 505.5 38.5 0 0 
104 527 38.5 0 0 
105 536.25 133.75 0 0 
106 566.5 38.5 0 0 
107 587.5 38.5 0 0 
108 617.5 133.25 0 0 
109 628.25 38.5 0 0 
110 651 38.75 0 0 
111 636.5 155.75 0 0 
112 604.5 155.5 0 0 
113 577.25 73.5 0 0 
114 551 155.75 0 0 
115 733.5 155.75 0 0 
116 669.25 155.5 0 0 
117 669.5 38.5 0 0 
118 691 38.25 0 0 
119 691.75 39 0 0 
120 691.5 86.5 0 0 
121 692 87.25 0 0 
122 730.75 87.75 0 0 
123 730.75 104.75 0 0 
124 730 105.75 0 0 
125 692.5 105.5 0 0 
126 691.75 106 0 0 
127 691.5 135.75 0 0 
128 692.25 136.75 0 0 
129 733.25 136.75 0 0 
130 751.25 165.75 0 0 
131 751.25 38.5 0 0 
132 773 38.5 0 0 
133 773.25 165.5 0 0 
134 831 126.5 0 0 
135 821.75 124.75 0 0 
136 813.75 121.5 0 0 
137 807.25 117 0 0 
138 800.25 109.25 0 0 
139 796.25 102.25 0 0 
140 793.25 93.5 0 0 
141 792 84.5 0 0 
142 792 74.25 0 0 
143 793.25 64.75 0 0 
144 796.25 56.5 0 0 
145 800.5 49.5 0 0 
146 805.5 44.5 0 0 
147 812 40.5 0 0 
148 819.75 37.75 0 0 
149 828 36.5 0 0 
150 836.75 36.5 0 0 
151 847.5 38.5 0 0 
152 855 41.75 0 0 
153 861.5 46.25 0 0 
154 868.25 53.75 0 0 
155 872.25 60.75 0 0 
156 875.5 70.75 0 0 
157 876.5 77 0 0 
158 876.5 90.75 0 0 
159 875.25 98.5 0 0 
160 872.5 106.5 0 0 
161 868.5 113 0 0 
162 862.75 118.75 0 0 
163 856 122.75 0 0 
164 847.75 125.5 0 0 
165 841 126.5 0 0 
166 833 108 0 0 
167 840.5 107.25 0 0 
168 843 106.25 0 0 
169 847.25 103 0 0 
170 850 99.5 0 0 
171 852.25 94.75 0 0 
172 854 84.5 0 0 
173 853.25 72.25 0 0 
174 852 67.75 0 0 
175 850 63.75 0 0 
176 844 57.75 0 0 
177 839.5 55.75 0 0 
178 836 55.25 0 0 
179 828 56 0 0 
180 824.25 57.75 0 0 
181 820.5 61 0 0 
182 816.75 67.25 0 0 
183 814.5 77.75 0 0 
184 814.5 85.25 0 0 
185 815.5 91.75 0 0 
186 818.5 99.25 0 0 
187 820.5 102 0 0 
188 824.5 105.5 0 0 
189 829.25 107.5 0 0 
190 884 124.5 0 0 
191 909.5 38.75 0 0 
192 933.5 38.5 0 0 
193 950.25 97 0 0 
194 967.25 38.75 0 0 
195 992.5 38.75 0 0 
196 1018.75 124.75 0 0 
197 996.75 124.75 0 0 
198 980 64.5 0 0 
199 963 124.75 0 0 
200 940.75 124.5 0 0 
201 924.25 65 0 0 
202 908.5 124.5 0 0 
1 -9.999996564147295e-08 -1e-07 -1e-07 1050.0000001 1e-07 1e-07 0 2 1 -2 
2 1049.9999999 -9.999999406318238e-08 -1e-07 1050.0000001 200.0000001 1e-07 0 2 2 -3 
3 -9.999996564147295e-08 199.9999999 -1e-07 1050.0000001 200.0000001 1e-07 0 2 3 -4 
4 -1e-07 -9.999999406318238e-08 -1e-07 1e-07 200.0000001 1e-07 0 2 4 -1 
5 30.4999999 38.4999999 -1e-07 44.5000001 155.5000001 1e-07 0 2 5 -6 
6 30.4999999 38.4999999 -1e-07 52.0000001 38.5000001 1e-07 0 2 6 -7 
7 51.9999999 38.4999999 -1e-07 61.2500001 133.7500001 1e-07 0 2 7 -8 
8 61.2499999 38.4999999 -1e-07 91.50000009999999 133.7500001 1e-07 0 2 8 -9 
9 91.49999990000001 38.4999999 -1e-07 112.5000001 38.5000001 1e-07 0 2 9 -10 
10 112.4999999 38.4999999 -1e-07 142.5000001 133.2500001 1e-07 0 2 10 -11 
11 142.4999999 38.4999999 -1e-07 153.2500001 133.2500001 1e-07 0 2 11 -12 
12 153.2499999 38.4999999 -1e-07 176.0000001 38.7500001 1e-07 0 2 12 -13 
13 161.4999999 38.7499999 -1e-07 176.0000001 155.7500001 1e-07 0 2 13 -14 
14 129.4999999 155.4999999 -1e-07 161.5000001 155.7500001 1e-07 0 2 14 -15 
15 103.4999999 71.74999990000001 -1e-07 129.5000001 155.5000001 1e-07 0 2 15 -16 
16 75.99999990000001 71.74999990000001 -1e-07 103.5000001 155.7500001 1e-07 0 2 16 -17 
17 44.4999999 155.4999999 -1e-07 76.00000009999999 155.7500001 1e-07 0 2 17 -5 
18 194.2499999 38.4999999 -1e-07 194.2500001 124.7500001 1e-07 0 2 18 -19 
19 194.2499999 38.4999999 -1e-07 216.0000001 38.5000001 1e-07 0 2 19 -20 
20 215.9999999 38.4999999 -1e-07 216.2500001 124.5000001 1e-07 0 2 20 -21 
21 194.2499999 124.4999999 -1e-07 216.2500001 124.7500001 1e-07 0 2 21 -18 
22 196.9999999 162.4999999 -1e-07 201.7500001 164.7500001 1e-07 0 2 22 -23 
23 194.2499999 159.7499999 -1e-07 197.0000001 162.5000001 1e-07 0 2 23 -24 
24 192.2499999 156.4999999 -1e-07 194.2500001 159.7500001 1e-07 0 2 24 -25 
25 191.4999999 153.4999999 -1e-07 192.2500001 156.5000001 1e-07 0 2 25 -26 
26 191.4999999 149.7499999 -1e-07 191.5000001 153.5000001 1e-07 0 2 26 -27 
27 191.4999999 146.7499999 -1e-07 192.2500001 149.7500001 1e-07 0 2 27 -28 
28 192.2499999 142.4999999 -1e-07 195.0000001 146.7500001 1e-07 0 2 28 -29 
29 194.9999999 139.7499999 -1e-07 198.5000001 142.5000001 1e-07 0 2 29 -30 
30 198.4999999 138.4999999 -1e-07 201.7500001 139.7500001 1e-07 0 2 30 -31 
31 201.7499999 138.4999999 -1e-07 208.5000001 138.5000001 1e-07 0 2 31 -32 
32 208.4999999 138.4999999 -1e-07 213.0000001 140.5000001 1e-07 0 2 32 -33 
33 212.9999999 140.4999999 -1e-07 217.2500001 144.7500001 1e-07 0 2 33 -34 
34 217.2499999 144.7499999 -1e-07 219.0000001 150.2500001 1e-07 0 2 34 -35 
35 218.4999999 150.2499999 -1e-07 219.0000001 155.7500001 1e-07 0 2 35 -36 
36 215.4999999 155.7499999 -1e-07 218.5000001 160.7500001 1e-07 0 2 36 -37 
37 211.7499999 160.7499999 -1e-07 215.5000001 163.5000001 1e-07 0 2 37 -38 
38 208.4999999 163.4999999 -1e-07 211.7500001 164.7500001 1e-07 0 2 38 -39 
39 201.7499999 164.7499999 -1e-07 208.5000001 164.7500001 1e-07 0 2 39 -22 
40 304.9999999 120.9999999 -1e-07 308.5000001 123.5000001 1e-07 0 2 40 -41 
41 299.2499999 123.4999999 -1e-07 305.0000001 125.7500001 1e-07 0 2 41 -42 
42 294.7499999 125.7499999 -1e-07 299.2500001 126.5000001 1e-07 0 2 42 -43 
43 286.2499999 126.4999999 -1e-07 294.7500001 126.5000001 1e-07 0 2 43 -44 
44 281.7499999 125.7499999 -1e-07 286.2500001 126.5000001 1e-07 0 2 44 -45 
45 275.9999999 123.7499999 -1e-07 281.7500001 125.7500001 1e-07 0 2 45 -46 
46 269.4999999 119.7499999 -1e-07 276.0000001 123.7500001 1e-07 0 2 46 -47 
47 266.2499999 116.7499999 -1e-07 269.5000001 119.7500001 1e-07 0 2 47 -48 
48 261.2499999 110.2499999 -1e-07 266.2500001 116.7500001 1e-07 0 2 48 -49 
49 261.2499999 110.2499999 -1e-07 261.7500001 124.7500001 1e-07 0 2 49 -50 
50 241.2499999 124.7499999 -1e-07 261.7500001 124.7500001 1e-07 0 2 50 -51 
51 241.2499999 38.4999999 -1e-07 241.2500001 124.7500001 1e-07 0 2 51 -52 
52 241.2499999 38.4999999 -1e-07 263.2500001 38.7500001 1e-07 0 2 52 -53 
53 263.2499999 38.7499999 -1e-07 263.2500001 83.00000009999999 1e-07 0 2 53 -54 
54 263.2499999 82.99999990000001 -1e-07 264.5000001 90.25000009999999 1e-07 0 2 54 -55 
55 264.4999999 90.24999990000001 -1e-07 266.7500001 96.00000009999999 1e-07 0 2 55 -56 
56 266.7499999 95.99999990000001 -1e-07 270.7500001 102.0000001 1e-07 0 2 56 -57 
57 270.7499999 101.9999999 -1e-07 276.2500001 106.5000001 1e-07 0 2 57 -58 
58 276.2499999 106.4999999 -1e-07 282.2500001 108.2500001 1e-07 0 2 58 -59 
59 282.2499999 107.4999999 -1e-07 288.2500001 108.2500001 1e-07 0 2 59 -60 
60 288.2499999 106.4999999 -1e-07 290.0000001 107.5000001 1e-07 0 2 60 -61 
61 289.9999999 102.9999999 -1e-07 293.0000001 106.5000001 1e-07 0 2 61 -62 
62 292.9999999 98.99999990000001 -1e-07 294.2500001 103.0000001 1e-07 0 2 62 -63 
63 294.2499999 38.4999999 -1e-07 294.5000001 99.00000009999999 1e-07 0 2 63 -64 
64 294.4999999 38.4999999 -1e-07 316.5000001 38.7500001 1e-07 0 2 64 -65 
65 316.2499999 38.7499999 -1e-07 316.5000001 104.0000001 1e-07 0 2 65 -66 
66 315.2499999 103.9999999 -1e-07 316.2500001 109.5000001 1e-07 0 2 66 -67 
67 313.4999999 109.4999999 -1e-07 315.2500001 114.2500001 1e-07 0 2 67 -68 
68 308.4999999 114.2499999 -1e-07 313.5000001 121.0000001 1e-07 0 2 68 -40 
69 341.2499999 155.4999999 -1e-07 405.5000001 155.7500001 1e-07 0 2 69 -70 
70 341.2499999 38.4999999 -1e-07 341.5000001 155.5000001 1e-07 0 2 70 -71 
71 341.4999999 38.2499999 -1e-07 363.0000001 38.5000001 1e-07 0 2 71 -72 
72 362.9999999 38.2499999 -1e-07 363.7500001 39.0000001 1e-07 0 2 72 -73 
73 363.4999999 38.9999999 -1e-07 363.7500001 86.50000009999999 1e-07 0 2 73 -74 
74 363.4999999 86.49999990000001 -1e-07 364.0000001 87.25000009999999 1e-07 0 2 74 -75 
75 363.9999999 87.24999990000001 -1e-07 402.7500001 87.75000009999999 1e-07 0 2 75 -76 
76 402.7499999 87.74999990000001 -1e-07 402.7500001 104.7500001 1e-07 0 2 76 -77 
77 401.9999999 104.7499999 -1e-07 402.7500001 105.7500001 1e-07 0 2 77 -78 
78 364.4999999 105.4999999 -1e-07 402.0000001 105.7500001 1e-07 0 2 78 -79 
79 363.7499999 105.4999999 -1e-07 364.5000001 106.0000001 1e-07 0 2 79 -80 
80 363.4999999 105.9999999 -1e-07 363.7500001 135.7500001 1e-07 0 2 80 -81 
81 363.4999999 135.7499999 -1e-07 364.2500001 136.7500001 1e-07 0 2 81 -82 
82 364.2499999 136.7499999 -1e-07 405.2500001 136.7500001 1e-07 0 2 82 -83 
83 405.2499999 136.7499999 -1e-07 405.5000001 155.7500001 1e-07 0 2 83 -69 
84 423.2499999 38.7499999 -1e-07 423.5000001 155.7500001 1e-07 0 2 84 -85 
85 423.2499999 38.4999999 -1e-07 489.5000001 38.7500001 1e-07 0 2 85 -86 
86 489.4999999 38.4999999 -1e-07 489.7500001 57.2500001 1e-07 0 2 86 -87 
87 489.2499999 57.2499999 -1e-07 489.7500001 57.7500001 1e-07 0 2 87 -88 
88 446.4999999 57.4999999 -1e-07 489.2500001 57.7500001 1e-07 0 2 88 -89 
89 445.4999999 57.4999999 -1e-07 446.5000001 58.5000001 1e-07 0 2 89 -90 
90 445.4999999 58.4999999 -1e-07 445.5000001 88.50000009999999 1e-07 0 2 90 -91 
91 445.4999999 88.49999990000001 -1e-07 446.0000001 89.25000009999999 1e-07 0 2 91 -92 
92 445.9999999 89.24999990000001 -1e-07 486.2500001 89.75000009999999 1e-07 0 2 92 -93 
93 486.2499999 89.74999990000001 -1e-07 486.2500001 106.7500001 1e-07 0 2 93 -94 
94 485.7499999 106.7499999 -1e-07 486.2500001 107.5000001 1e-07 0 2 94 -95 
95 446.4999999 107.4999999 -1e-07 485.7500001 107.5000001 1e-07 0 2 95 -96 
96 445.7499999 107.4999999 -1e-07 446.5000001 108.0000001 1e-07 0 2 96 -97 
97 445.4999999 107.9999999 -1e-07 445.7500001 136.2500001 1e-07 0 2 97 -98 
98 445.4999999 136.2499999 -1e-07 446.2500001 137.2500001 1e-07 0 2 98 -99 
99 446.2499999 137.2499999 -1e-07 489.7500001 137.5000001 1e-07 0 2 99 -100 
100 489.7499999 137.4999999 -1e-07 489.7500001 155.5000001 1e-07 0 2 100 -101 
101 423.4999999 155.4999999 -1e-07 489.7500001 155.7500001 1e-07 0 2 101 -84 
102 505.4999999 38.4999999 -1e-07 519.5000001 155.5000001 1e-07 0 2 102 -103 
103 505.4999999 38.4999999 -1e-07 527.0000001 38.5000001 1e-07 0 2 103 -104 
104 526.9999999 38.4999999 -1e-07 536.2500001 133.7500001 1e-07 0 2 104 -105 
105 536.2499999 38.4999999 -1e-07 566.5000001 133.7500001 1e-07 0 2 105 -106 
106 566.4999999 38.4999999 -1e-07 587.5000001 38.5000001 1e-07 0 2 106 -107 
107 587.4999999 38.4999999 -1e-07 617.5000001 133.2500001 1e-07 0 2 107 -108 
108 617.4999999 38.4999999 -1e-07 628.2500001 133.2500001 1e-07 0 2 108 -109 
109 628.2499999 38.4999999 -1e-07 651.0000001 38.7500001 1e-07 0 2 109 -110 
110 636.4999999 38.7499999 -1e-07 651.0000001 155.7500001 1e-07 0 2 110 -111 
111 604.4999999 155.4999999 -1e-07 636.5000001 155.7500001 1e-07 0 2 111 -112 
112 577.2499999 73.49999990000001 -1e-07 604.5000001 155.5000001 1e-07 0 2 112 -113 
113 550.9999999 73.49999990000001 -1e-07 577.2500001 155.7500001 1e-07 0 2 113 -114 
114 519.4999999 155.4999999 -1e-07 551.0000001 155.7500001 1e-07 0 2 114 -102 
115 669.2499999 155.4999999 -1e-07 733.5000001 155.7500001 1e-07 0 2 115 -116 
116 669.2499999 38.4999999 -1e-07 669.5000001 155.5000001 1e-07 0 2 116 -117 
117 669.4999999 38.2499999 -1e-07 691.0000001 38.5000001 1e-07 0 2 117 -118 
118 690.9999999 38.2499999 -1e-07 691.7500001 39.0000001 1e-07 0 2 118 -119 
119 691.4999999 38.9999999 -1e-07 691.7500001 86.50000009999999 1e-07 0 2 119 -120 
120 691.4999999 86.49999990000001 -1e-07 692.0000001 87.25000009999999 1e-07 0 2 120 -121 
121 691.9999999 87.24999990000001 -1e-07 730.7500001 87.75000009999999 1e-07 0 2 121 -122 
122 730.7499999 87.74999990000001 -1e-07 730.7500001 104.7500001 1e-07 0 2 122 -123 
123 729.9999999 104.7499999 -1e-07 730.7500001 105.7500001 1e-07 0 2 123 -124 
124 692.4999999 105.4999999 -1e-07 730.0000001 105.7500001 1e-07 0 2 124 -125 
125 691.7499999 105.4999999 -1e-07 692.5000001 106.0000001 1e-07 0 2 125 -126 
126 691.4999999 105.9999999 -1e-07 691.7500001 135.7500001 1e-07 0 2 126 -127 
127 691.4999999 135.7499999 -1e-07 692.2500001 136.7500001 1e-07 0 2 127 -128 
128 692.2499999 136.7499999 -1e-07 733.2500001 136.7500001 1e-07 0 2 128 -129 
129 733.2499999 136.7499999 -1e-07 733.5000001 155.7500001 1e-07 0 2 129 -115 
130 751.2499999 38.4999999 -1e-07 751.2500001 165.7500001 1e-07 0 2 130 -131 
131 751.2499999 38.4999999 -1e-07 773.0000001 38.5000001 1e-07 0 2 131 -132 
132 772.9999999 38.4999999 -1e-07 773.2500001 165.5000001 1e-07 0 2 132 -133 
133 751.2499999 165.4999999 -1e-07 773.2500001 165.7500001 1e-07 0 2 133 -130 
134 821.7499999 124.7499999 -1e-07 831.0000001 126.5000001 1e-07 0 2 134 -135 
135 813.7499999 121.4999999 -1e-07 821.7500001 124.7500001 1e-07 0 2 135 -136 
136 807.2499999 116.9999999 -1e-07 813.7500001 121.5000001 1e-07 0 2 136 -137 
137 800.2499999 109.2499999 -1e-07 807.2500001 117.0000001 1e-07 0 2 137 -138 
138 796.2499999 102.2499999 -1e-07 800.2500001 109.2500001 1e-07 0 2 138 -139 
139 793.2499999 93.49999990000001 -1e-07 796.2500001 102.2500001 1e-07 0 2 139 -140 
140 791.9999999 84.49999990000001 -1e-07 793.2500001 93.50000009999999 1e-07 0 2 140 -141 
141 791.9999999 74.24999990000001 -1e-07 792.0000001 84.50000009999999 1e-07 0 2 141 -142 
142 791.9999999 64.74999990000001 -1e-07 793.2500001 74.25000009999999 1e-07 0 2 142 -143 
143 793.2499999 56.4999999 -1e-07 796.2500001 64.75000009999999 1e-07 0 2 143 -144 
144 796.2499999 49.4999999 -1e-07 800.5000001 56.5000001 1e-07 0 2 144 -145 
145 800.4999999 44.4999999 -1e-07 805.5000001 49.5000001 1e-07 0 2 145 -146 
146 805.4999999 40.4999999 -1e-07 812.0000001 44.5000001 1e-07 0 2 146 -147 
147 811.9999999 37.7499999 -1e-07 819.7500001 40.5000001 1e-07 0 2 147 -148 
148 819.7499999 36.4999999 -1e-07 828.0000001 37.7500001 1e-07 0 2 148 -149 
149 827.9999999 36.4999999 -1e-07 836.7500001 36.5000001 1e-07 0 2 149 -150 
150 836.7499999 36.4999999 -1e-07 847.5000001 38.5000001 1e-07 0 2 150 -151 
151 847.4999999 38.4999999 -1e-07 855.0000001 41.7500001 1e-07 0 2 151 -152 
152 854.9999999 41.7499999 -1e-07 861.5000001 46.2500001 1e-07 0 2 152 -153 
153 861.4999999 46.2499999 -1e-07 868.2500001 53.7500001 1e-07 0 2 153 -154 
154 868.2499999 53.7499999 -1e-07 872.2500001 60.7500001 1e-07 0 2 154 -155 
155 872.2499999 60.7499999 -1e-07 875.5000001 70.75000009999999 1e-07 0 2 155 -156 
156 875.4999999 70.74999990000001 -1e-07 876.5000001 77.00000009999999 1e-07 0 2 156 -157 
157 876.4999999 76.99999990000001 -1e-07 876.5000001 90.75000009999999 1e-07 0 2 157 -158 
158 875.2499999 90.74999990000001 -1e-07 876.5000001 98.50000009999999 1e-07 0 2 158 -159 
159 872.4999999 98.49999990000001 -1e-07 875.2500001 106.5000001 1e-07 0 2 159 -160 
160 868.4999999 106.4999999 -1e-07 872.5000001 113.0000001 1e-07 0 2 160 -161 
161 862.7499999 112.9999999 -1e-07 868.5000001 118.7500001 1e-07 0 2 161 -162 
162 855.9999999 118.7499999 -1e-07 862.7500001 122.7500001 1e-07 0 2 162 -163 
163 847.7499999 122.7499999 -1e-07 856.0000001 125.5000001 1e-07 0 2 163 -164 
164 840.9999999 125.4999999 -1e-07 847.7500001 126.5000001 1e-07 0 2 164 -165 
165 830.9999999 126.4999999 -1e-07 841.0000001 126.5000001 1e-07 0 2 165 -134 
166 832.9999999 107.2499999 -1e-07 840.5000001 108.0000001 1e-07 0 2 166 -167 
167 840.4999999 106.2499999 -1e-07 843.0000001 107.2500001 1e-07 0 2 167 -168 
168 842.9999999 102.9999999 -1e-07 847.2500001 106.2500001 1e-07 0 2 168 -169 
169 847.2499999 99.49999990000001 -1e-07 850.0000001 103.0000001 1e-07 0 2 169 -170 
170 849.9999999 94.74999990000001 -1e-07 852.2500001 99.50000009999999 1e-07 0 2 170 -171 
171 852.2499999 84.49999990000001 -1e-07 854.0000001 94.75000009999999 1e-07 0 2 171 -172 
172 853.2499999 72.24999990000001 -1e-07 854.0000001 84.50000009999999 1e-07 0 2 172 -173 
173 851.9999999 67.74999990000001 -1e-07 853.2500001 72.25000009999999 1e-07 0 2 173 -174 
174 849.9999999 63.7499999 -1e-07 852.0000001 67.75000009999999 1e-07 0 2 174 -175 
175 843.9999999 57.7499999 -1e-07 850.0000001 63.7500001 1e-07 0 2 175 -176 
176 839.4999999 55.7499999 -1e-07 844.0000001 57.7500001 1e-07 0 2 176 -177 
177 835.9999999 55.2499999 -1e-07 839.5000001 55.7500001 1e-07 0 2 177 -178 
178 827.9999999 55.2499999 -1e-07 836.0000001 56.0000001 1e-07 0 2 178 -179 
179 824.2499999 55.9999999 -1e-07 828.0000001 57.7500001 1e-07 0 2 179 -180 
180 820.4999999 57.7499999 -1e-07 824.2500001 61.0000001 1e-07 0 2 180 -181 
181 816.7499999 60.9999999 -1e-07 820.5000001 67.25000009999999 1e-07 0 2 181 -182 
182 814.4999999 67.24999990000001 -1e-07 816.7500001 77.75000009999999 1e-07 0 2 182 -183 
183 814.4999999 77.74999990000001 -1e-07 814.5000001 85.25000009999999 1e-07 0 2 183 -184 
184 814.4999999 85.24999990000001 -1e-07 815.5000001 91.75000009999999 1e-07 0 2 184 -185 
185 815.4999999 91.74999990000001 -1e-07 818.5000001 99.25000009999999 1e-07 0 2 185 -186 
186 818.4999999 99.24999990000001 -1e-07 820.5000001 102.0000001 1e-07 0 2 186 -187 
187 820.4999999 101.9999999 -1e-07 824.5000001 105.5000001 1e-07 0 2 187 -188 
188 824.4999999 105.4999999 -1e-07 829.2500001 107.5000001 1e-07 0 2 188 -189 
189 829.2499999 107.4999999 -1e-07 833.0000001 108.0000001 1e-07 0 2 189 -166 
190 883.9999999 38.7499999 -1e-07 909.5000001 124.5000001 1e-07 0 2 190 -191 
191 909.4999999 38.4999999 -1e-07 933.5000001 38.7500001 1e-07 0 2 191 -192 
192 933.4999999 38.4999999 -1e-07 950.2500001 97.00000009999999 1e-07 0 2 192 -193 
193 950.2499999 38.7499999 -1e-07 967.2500001 97.00000009999999 1e-07 0 2 193 -194 
194 967.2499999 38.7499999 -1e-07 992.5000001 38.7500001 1e-07 0 2 194 -195 
195 992.4999999 38.7499999 -1e-07 1018.7500001 124.7500001 1e-07 0 2 195 -196 
196 996.7499999 124.7499999 -1e-07 1018.7500001 124.7500001 1e-07 0 2 196 -197 
197 979.9999999 64.49999990000001 -1e-07 996.7500001 124.7500001 1e-07 0 2 197 -198 
198 962.9999999 64.49999990000001 -1e-07 980.0000001 124.7500001 1e-07 0 2 198 -199 
199 940.7499999 124.4999999 -1e-07 963.0000001 124.7500001 1e-07 0 2 199 -200 
200 924.2499999 64.99999990000001 -1e-07 940.7500001 124.5000001 1e-07 0 2 200 -201 
201 908.4999999 64.99999990000001 -1e-07 924.2500001 124.5000001 1e-07 0 2 201 -202 
202 883.9999999 124.4999999 -1e-07 908.5000001 124.5000001 1e-07 0 2 202 -190 
1 -9.999996564147295e-08 -9.999999406318238e-08 -1e-07 1050.0000001 200.0000001 1e-07 1 1 202 1 2 3 4 -202 -201 -200 -199 -198 -197 -196 -195 -194 -193 -192 -191 -190 -21 -20 -19 -18 -165 -164 -163 -162 -161 -160 -159 -158 -157 -156 -155 -154 -153 -152 -151 -150 -149 -148 -147 -146 -145 -144 -143 -142 -141 -140 -139 -138 -137 -136 -135 -134 -189 -188 -187 -186 -185 -184 -183 -182 -181 -180 -179 -178 -177 -176 -175 -174 -173 -172 -171 -170 -169 -168 -167 -166 -68 -67 -66 -65 -64 -63 -62 -61 -60 -59 -58 -57 -56 -55 -54 -53 -52 -51 -50 -49 -48 -47 -46 -45 -44 -43 -42 -41 -40 -114 -113 -112 -111 -110 -109 -108 -107 -106 -105 -104 -103 -102 -101 -100 -99 -98 -97 -96 -95 -94 -93 -92 -91 -90 -89 -88 -87 -86 -85 -84 -17 -16 -15 -14 -13 -12 -11 -10 -9 -8 -7 -6 -5 -129 -128 -127 -126 -125 -124 -123 -122 -121 -120 -119 -118 -117 -116 -115 -83 -82 -81 -80 -79 -78 -77 -76 -75 -74 -73 -72 -71 -70 -69 -39 -38 -37 -36 -35 -34 -33 -32 -31 -30 -29 -28 -27 -26 -25 -24 -23 -22 -133 -132 -131 -130 
2 814.4999999 55.2499999 -1e-07 854.0000001 108.0000001 1e-07 1 2 24 166 167 168 169 170 171 172 173 174 175 176 177 178 179 180 181 182 183 184 185 186 187 188 189 
$EndEntities
$Nodes
253 658 1 658
0 1 0 1
1
0 0 0
0 2 0 1
2
1050 0 0
0 3 0 1
3
1050 200 0
0 4 0 1
4
0 200 0
0 5 0 1
5
44.5 155.5 0
0 6 0 1
6
30.5 38.5 0
0 7 0 1
7
52 38.5 0
0 8 0 1
8
61.25 133.75 0
0 9 0 1
9
91.5 38.5 0
0 10 0 1
10
112.5 38.5 0
0 11 0 1
11
142.5 133.25 0
0 12 0 1
12
153.25 38.5 0
0 13 0 1
13
176 38.75 0
0 14 0 1
14
161.5 155.75 0
0 15 0 1
15
129.5 155.5 0
0 16 0 1
16
103.5 71.75 0
0 17 0 1
17
76 155.75 0
0 18 0 1
18
194.25 124.75 0
0 19 0 1
19
194.25 38.5 0
0 20 0 1
20
216 38.5 0
0 21 0 1
21
216.25 124.5 0
0 22 0 1
22
201.75 164.75 0
0 23 0 1
23
197 162.5 0
0 24 0 1
24
194.25 159.75 0
0 25 0 1
25
192.25 156.5 0
0 26 0 1
26
191.5 153.5 0
0 27 0 1
27
191.5 149.75 0
0 28 0 1
28
192.25 146.75 0
0 29 0 1
29
195 142.5 0
0 30 0 1
30
198.5 139.75 0
0 31 0 1
31
201.75 138.5 0
0 32 0 1
32
208.5 138.5 0
0 33 0 1
33
213 140.5 0
0 34 0 1
34
217.25 144.75 0
0 35 0 1
35
219 150.25 0
0 36 0 1
36
218.5 155.75 0
0 37 0 1
37
215.5 160.75 0
0 38 0 1
38
211.75 163.5 0
0 39 0 1
39
208.5 164.75 0
0 40 0 1
40
308.5 121 0
0 41 0 1
41
305 123.5 0
0 42 0 1
42
299.25 125.75 0
0 43 0 1
43
294.75 126.5 0
0 44 0 1
44
286.25 126.5 0
0 45 0 1
45
281.75 125.75 0
0 46 0 1
46
276 123.75 0
0 47 0 1
47
269.5 119.75 0
0 48 0 1
48
266.25 116.75 0
0 49 0 1
49
261.25 110.25 0
0 50 0 1
50
261.75 124.75 0
0 51 0 1
51
241.25 124.75 0
0 52 0 1
52
241.25 38.5 0
0 53 0 1
53
263.25 38.75 0
0 54 0 1
54
263.25 83 0
0 55 0 1
55
264.5 90.25 0
0 56 0 1
56
266.75 96 0
0 57 0 1
57
270.75 102 0
0 58 0 1
58
276.25 106.5 0
0 59 0 1
59
282.25 108.25 0
0 60 0 1
60
288.25 107.5 0
0 61 0 1
61
290 106.5 0
0 62 0 1
62
293 103 0
0 63 0 1
63
294.25 99 0
0 64 0 1
64
294.5 38.5 0
0 65 0 1
65
316.5 38.75 0
0 66 0 1
66
316.25 104 0
0 67 0 1
67
315.25 109.5 0
0 68 0 1
68
313.5 114.25 0
0 69 0 1
69
405.5 155.75 0
0 70 0 1
70
341.25 155.5 0
0 71 0 1
71
341.5 38.5 0
0 72 0 1
72
363 38.25 0
0 73 0 1
73
363.75 39 0
0 74 0 1
74
363.5 86.5 0
0 75 0 1
75
364 87.25 0
0 76 0 1
76
402.75 87.75 0
0 77 0 1
77
402.75 104.75 0
0 78 0 1
78
402 105.75 0
0 79 0 1
79
364.5 105.5 0
0 80 0 1
80
363.75 106 0
0 81 0 1
81
363.5 135.75 0
0 82 0 1
82
364.25 136.75 0
0 83 0 1
83
405.25 136.75 0
0 84 0 1
84
423.5 155.75 0
0 85 0 1
85
423.25 38.75 0
0 86 0 1
86
489.5 38.5 0
0 87 0 1
87
489.75 57.25 0
0 88 0 1
88
489.25 57.75 0
0 89 0 1
89
446.5 57.5 0
0 90 0 1
90
445.5 58.5 0
0 91 0 1
91
445.5 88.5 0
0 92 0 1
92
446 89.25 0
0 93 0 1
93
486.25 89.75 0
0 94 0 1
94
486.25 106.75 0
0 95 0 1
95
485.75 107.5 0
0 96 0 1
96
446.5 107.5 0
0 97 0 1
97
445.75 108 0
0 98 0 1
98
445.5 136.25 0
0 99 0 1
99
446.25 137.25 0
0 100 0 1
100
489.75 137.5 0
0 101 0 1
101
489.75 155.5 0
0 102 0 1
102
519.5 155.5 0
0 103 0 1
103
505.5 38.5 0
0 104 0 1
104
527 38.5 0
0 105 0 1
105
536.25 133.75 0
0 106 0 1
106
566.5 38.5 0
0 107 0 1
107
587.5 38.5 0
0 108 0 1
108
617.5 133.25 0
0 109 0 1
109
628.25 38.5 0
0 110 0 1
110
651 38.75 0
0 111 0 1
111
636.5 155.75 0
0 112 0 1
112
604.5 155.5 0
0 113 0 1
113
577.25 73.5 0
0 114 0 1
114
551 155.75 0
0 115 0 1
115
733.5 155.75 0
0 116 0 1
116
669.25 155.5 0
0 117 0 1
117
669.5 38.5 0
0 118 0 1
118
691 38.25 0
0 119 0 1
119
691.75 39 0
0 120 0 1
120
691.5 86.5 0
0 121 0 1
121
692 87.25 0
0 122 0 1
122
730.75 87.75 0
0 123 0 1
123
730.75 104.75 0
0 124 0 1
124
730 105.75 0
0 125 0 1
125
692.5 105.5 0
0 126 0 1
126
691.75 106 0
0 127 0 1
127
691.5 135.75 0
0 128 0 1
128
692.25 136.75 0
0 129 0 1
129
733.25 136.75 0
0 130 0 1
130
751.25 165.75 0
0 131 0 1
131
751.25 38.5 0
0 132 0 1
132
773 38.5 0
0 133 0 1
133
773.25 165.5 0
0 134 0 1
134
831 126.5 0
0 135 0 1
135
821.75 124.75 0
0 136 0 1
136
813.75 121.5 0
0 137 0 1
137
807.25 117 0
0 138 0 1
138
800.25 109.25 0
0 139 0 1
139
796.25 102.25 0
0 140 0 1
140
793.25 93.5 0
0 141 0 1
141
792 84.5 0
0 142 0 1
142
792 74.25 0
0 143 0 1
143
793.25 64.75 0
0 144 0 1
144
796.25 56.5 0
0 145 0 1
145
800.5 49.5 0
0 146 0 1
146
805.5 44.5 0
0 147 0 1
147
812 40.5 0
0 148 0 1
148
819.75 37.75 0
0 149 0 1
149
828 36.5 0
0 150 0 1
150
836.75 36.5 0
0 151 0 1
151
847.5 38.5 0
0 152 0 1
152
855 41.75 0
0 153 0 1
153
861.5 46.25 0
0 154 0 1
154
868.25 53.75 0
0 155 0 1
155
872.25 60.75 0
0 156 0 1
156
875.5 70.75 0
0 157 0 1
157
876.5 77 0
0 158 0 1
158
876.5 90.75 0
0 159 0 1
159
875.25 98.5 0
0 160 0 1
160
872.5 106.5 0
0 161 0 1
161
868.5 113 0
0 162 0 1
162
862.75 118.75 0
0 163 0 1
163
856 122.75 0
0 164 0 1
164
847.75 125.5 0
0 165 0 1
165
841 126.5 0
0 166 0 1
166
833 108 0
0 167 0 1
167
840.5 107.25 0
0 168 0 1
168
843 106.25 0
0 169 0 1
169
847.25 103 0
0 170 0 1
170
850 99.5 0
0 171 0 1
171
852.25 94.75 0
0 172 0 1
172
854 84.5 0
0 173 0 1
173
853.25 72.25 0
0 174 0 1
174
852 67.75 0
0 175 0 1
175
850 63.75 0
0 176 0 1
176
844 57.75 0
0 177 0 1
177
839.5 55.75 0
0 178 0 1
178
836 55.25 0
0 179 0 1
179
828 56 0
0 180 0 1
180
824.25 57.75 0
0 181 0 1
181
820.5 61 0
0 182 0 1
182
816.75 67.25 0
0 183 0 1
183
814.5 77.75 0
0 184 0 1
184
814.5 85.25 0
0 185 0 1
185
815.5 91.75 0
0 186 0 1
186
818.5 99.25 0
0 187 0 1
187
820.5 102 0
0 188 0 1
188
824.5 105.5 0
0 189 0 1
189
829.25 107.5 0
0 190 0 1
190
884 124.5 0
0 191 0 1
191
909.5 38.75 0
0 192 0 1
192
933.5 38.5 0
0 193 0 1
193
950.25 97 0
0 194 0 1
194
967.25 38.75 0
0 195 0 1
195
992.5 38.75 0
0 196 0 1
196
1018.75 124.75 0
0 197 0 1
197
996.75 124.75 0
0 198 0 1
198
980 64.5 0
0 199 0 1
199
963 124.75 0
0 200 0 1
200
940.75 124.5 0
0 201 0 1
201
924.25 65 0
0 202 0 1
202
908.5 124.5 0
1 1 0 26
203
204
205
206
207
208
209
210
211
212
213
214
215
216
217
218
219
220
221
222
223
224
225
226
227
228
38.88888888888889 0 0
77.77777777777777 0 0
116.6666666666667 0 0
155.5555555555555 0 0
194.4444444444444 0 0
233.3333333333333 0 0
272.2222222222222 0 0
311.1111111111111 0 0
350 0 0
388.8888888888889 0 0
427.7777777777778 0 0
466.6666666666666 0 0
505.5555555555555 0 0
544.4444444444445 0 0
583.3333333333334 0 0
622.2222222222222 0 0
661.1111111111111 0 0
700 0 0
738.8888888888889 0 0
777.7777777777777 0 0
816.6666666666667 0 0
855.5555555555555 0 0
894.4444444444445 0 0
933.3333333333333 0 0
972.2222222222222 0 0
1011.111111111111 0 0
1 2 0 4
229
230
231
232
1050 40 0
1050 80 0
1050 120 0
1050 160 0
1 3 0 26
233
234
235
236
237
238
239
240
241
242
243
244
245
246
247
248
249
250
251
252
253
254
255
256
257
258
1011.111111111111 200 0
972.2222222222222 200 0
933.3333333333334 200 0
894.4444444444445 200 0
855.5555555555555 200 0
816.6666666666667 200 0
777.7777777777778 200 0
738.8888888888889 200 0
700 200 0
661.1111111111111 200 0
622.2222222222222 200 0
583.3333333333334 200 0
544.4444444444445 200 0
505.5555555555555 200 0
466.6666666666666 200 0
427.7777777777778 200 0
388.8888888888889 200 0
350 200 0
311.1111111111111 200 0
272.2222222222223 200 0
233.3333333333333 200 0
194.4444444444445 200 0
155.5555555555555 200 0
116.6666666666667 200 0
77.77777777777783 200 0
38.88888888888891 200 0
1 4 0 4
259
260
261
262
0 160 0
0 120 0
0 80 0
0 40 0
1 5 0 2
263
264
39.83333333333334 116.5 0
35.16666666666667 77.5 0
1 7 0 2
265
266
55.08333333333333 70.24999999999994 0
58.16666666666666 102 0
1 8 0 2
267
268
71.33333333333334 102 0
81.41666666666667 70.25 0
1 10 0 2
269
270
122.5 70.08333333333326 0
132.5 101.6666666666666 0
1 11 0 2
271
272
146.0833333333333 101.6666666666667 0
149.6666666666667 70.08333333333323 0
1 13 0 2
273
274
171.1666666666667 77.74999999999994 0
166.3333333333333 116.7499999999998 0
1 15 0 2
275
276
120.8333333333333 127.5833333333333 0
112.1666666666667 99.66666666666661 0
1 16 0 2
277
278
94.33333333333336 99.74999999999993 0
85.16666666666669 127.7499999999999 0
1 18 0 2
279
280
194.25 96 0
194.25 67.25 0
1 20 0 2
281
282
216.0833333333333 67.16666666666664 0
216.1666666666667 95.83333333333336 0
1 51 0 2
283
284
241.25 96 0
241.25 67.25 0
1 53 0 1
285
263.25 60.87499999999999 0
1 63 0 1
286
294.375 68.75000000000007 0
1 65 0 1
287
316.375 71.375 0
1 69 0 1
288
373.3750000000001 155.625 0
1 70 0 2
289
290
341.3333333333333 116.4999999999999 0
341.4166666666667 77.49999999999984 0
1 73 0 1
291
363.625 62.74999999999997 0
1 82 0 1
292
384.7500000000001 136.75 0
1 84 0 2
293
294
423.4166666666667 116.7499999999999 0
423.3333333333333 77.74999999999984 0
1 85 0 1
295
456.3749999999999 38.625 0
1 88 0 1
296
467.875 57.625 0
1 99 0 1
297
468 137.375 0
1 101 0 1
298
456.6250000000001 155.625 0
1 102 0 2
299
300
514.8333333333334 116.5 0
510.1666666666667 77.5 0
1 104 0 2
301
302
530.0833333333334 70.24999999999994 0
533.1666666666666 102 0
1 105 0 2
303
304
546.3333333333334 102 0
556.4166666666666 70.25 0
1 107 0 2
305
306
597.5 70.08333333333326 0
607.5 101.6666666666666 0
1 108 0 2
307
308
621.0833333333334 101.6666666666667 0
624.6666666666666 70.08333333333323 0
1 110 0 2
309
310
646.1666666666666 77.74999999999994 0
641.3333333333334 116.7499999999998 0
1 112 0 2
311
312
595.4166666666667 128.1666666666667 0
586.3333333333334 100.8333333333334 0
1 113 0 2
313
314
568.5 100.9166666666667 0
559.75 128.3333333333333 0
1 115 0 1
315
701.375 155.625 0
1 116 0 2
316
317
669.3333333333334 116.4999999999999 0
669.4166666666666 77.49999999999984 0
1 119 0 1
318
691.625 62.74999999999997 0
1 128 0 1
319
712.7500000000001 136.75 0
1 130 0 3
320
321
322
751.25 133.9375000000001 0
751.25 102.1250000000002 0
751.25 70.31250000000017 0
1 132 0 3
323
324
325
773.0625 70.25000000000003 0
773.125 102 0
773.1875 133.75 0
1 190 0 2
326
327
892.5 95.91666666666667 0
901 67.3333333333334 0
1 192 0 1
328
941.875 67.75000000000004 0
1 193 0 1
329
958.75 67.87500000000001 0
1 195 0 2
330
331
1001.25 67.41666666666666 0
1010 96.08333333333331 0
1 197 0 1
332
988.375 94.62500000000009 0
1 198 0 1
333
971.5 94.62499999999994 0
1 200 0 1
334
932.5 94.75000000000003 0
1 201 0 1
335
916.375 94.75000000000003 0
2 1 0 266
336
337
338
339
340
341
342
343
344
345
346
347
348
349
350
351
352
353
354
355
356
357
358
359
360
361
362
363
364
365
366
367
368
369
370
371
372
373
374
375
376
377
378
379
380
381
382
383
384
385
386
387
388
389
390
391
392
393
394
395
396
397
398
399
400
401
402
403
404
405
406
407
408
409
410
411
412
413
414
415
416
417
418
419
420
421
422
423
424
425
426
427
428
429
430
431
432
433
434
435
436
437
438
439
440
441
442
443
444
445
446
447
448
449
450
451
452
453
454
455
456
457
458
459
460
461
462
463
464
465
466
467
468
469
470
471
472
473
474
475
476
477
478
479
480
481
482
483
484
485
486
487
488
489
490
491
492
493
494
495
496
497
498
499
500
501
502
503
504
505
506
507
508
509
510
511
512
513
514
515
516
517
518
519
520
521
522
523
524
525
526
527
528
529
530
531
532
533
534
535
536
537
538
539
540
541
542
543
544
545
546
547
548
549
550
551
552
553
554
555
556
557
558
559
560
561
562
563
564
565
566
567
568
569
570
571
572
573
574
575
576
577
578
579
580
581
582
583
584
585
586
587
588
589
590
591
592
593
594
595
596
597
598
599
600
601
277.2780698173415 129.1769112311991 0
290.5 130.4508701573198 0
223.8131017075258 152.7749130380064 0
815.3302690657501 130.5028386197762 0
190.3843788308405 142.8040136253719 0
285.7096558673945 102.8124651563036 0
270.7707635282852 89.87173827032865 0
251.4999999999999 138.0651405831858 0
854.2185105157937 130.3691607726899 0
835.7387884225388 133.9899810692189 0
304.7083712622322 128.6856801593817 0
869.8551657766454 45.9500700289378 0
190.6255265790757 164.3948927930106 0
223.5211779215406 160.9243673474622 0
709.2021038840703 51.20453658029237 0
313.9476848955849 123.5965870371394 0
798.1777521992236 41.81636737609635 0
222.7853878121172 146.0171493325082 0
229.7026621994816 149.0143139594793 0
219.523977406549 139.931604562381 0
957.6189625575186 143.7225179438578 0
208.5500579364954 168.4815720961173 0
204.1947400134673 133.4925230085423 0
898.8385533153555 145.0695975561447 0
379.1135775049103 50.95618988160478 0
1008.384043023627 145.1404825264165 0
789.4011114327272 57.57469235945349 0
865.8557935195706 36.79143620674463 0
292.5558885085058 167.9956716788226 0
258.9320899742546 170.0125648772438 0
877.060280500458 51.23241901603961 0
883.5244687754376 60.60705601528014 0
880.3184340657389 40.14709625324829 0
886.2727564217801 71.15699123087768 0
793.6927309136177 148.1096824832229 0
273.3911879337719 154.4616594292578 0
188.6770673893101 155.392496809076 0
877.6586690727996 143.4146946819894 0
886.4890088727997 82.30605182219566 0
793.6227864259572 110.1112419339662 0
842.3993070279423 177.1774101737654 0
863.0947287832144 126.6976707653835 0
707.9054380718489 33.17340747700729 0
228.2987804372266 141.3787099482237 0
236.5409513717901 144.8879207712081 0
236.1672785138396 153.5258895664046 0
244.0537827178473 149.7114765523158 0
281.1253382892157 91.17322933019936 0
274.6344217990573 78.01520159137128 0
378.9885775049103 74.70618988160479 0
706.9885775049103 74.70618988160479 0
798.6188604060083 117.759577697799 0
984.4661414510012 146.4173046949896 0
830.3578994847089 27.98074116849395 0
806.523831711847 126.23327507075 0
880.6759554635607 105.7523476076331 0
811.8164561653048 31.92788408475546 0
845.6364488996805 133.3115790571276 0
841.5878965768748 143.3868726253973 0
828.1342035975837 143.2276540371172 0
853.6324919190721 140.4089700335288 0
871.2025337291279 121.2484897771364 0
400.7534168120899 62.24424829287639 0
283.6176924993594 130.7027246515135 0
287.4533664490389 135.9798786244533 0
294.4020875506105 137.3269158468269 0
285.7218436415603 145.830059807278 0
306.5081370676083 155.2600545925 0
269.840783646527 126.2934642325499 0
265.3511849413968 135.0086175181635 0
858.603264507409 155.2351266214166 0
886.0023607234166 164.5453853917265 0
792.3563877644873 48.99939587781328 0
372.2016899856829 117.8650349785243 0
700.2016899856828 117.8650349785243 0
875.3756978385377 114.2001674769539 0
457.2912011173185 73.5 0
277.2474825060766 99.81014978079756 0
926.2492700945314 141.1437185140287 0
979.9374999999999 113.1973547717843 0
454.2316206334667 119.9099309502001 0
731.9131595864731 54.40625000000009 0
679.5938842620079 20.07718973542698 0
481.2721899097695 69.85007777399485 0
806.7183566739358 138.3065497747951 0
795.3292307851448 131.9503580459309 0
814.2291547129751 151.4002403916838 0
800.4141948475537 169.2197866937261 0
498.6456609456991 98.25 0
380.5163262170088 30.64112746919638 0
198.71126832164 136.5244334552958 0
194.5369399280405 138.4502678366954 0
924.4375 112.8014705882353 0
786.4072791943892 101.1755064583452 0
782.2422389345179 90.57447031931842 0
308.8245222498487 142.6030111953906 0
312.8261752190904 132.155812890285 0
659.4467569484264 58.08382370735819 0
244.1879252448421 161.1483425738025 0
950.4470446182154 49.64897654093839 0
994.7438796139106 170.892931594414 0
969.5267239136815 166.7834157024147 0
940.429925518598 169.7725037469897 0
546.3674145130458 49.51069266704354 0
544.457029287575 27.1045247193759 0
71.36741451304584 49.5106926670436 0
71.40129796658408 27.30909078531805 0
784.5348165126093 77.57132415935126 0
297.7038819679555 130.7254604643898 0
608.2429451264771 49.22692551451887 0
610.6949074379744 24.91785299426951 0
133.2429451264771 49.22692551451887 0
134.0032265091592 23.7342907571341 0
413.2068029669193 176.6889991266457 0
443.5062984480915 177.2079945967777 0
226.0444562623933 130.3729961677957 0
845.8151257655431 17.14385953601712 0
243.7907799784365 141.164669102362 0
236.5045583144359 135.992408707017 0
578.9703336485719 148.2727824314512 0
174.8763363181101 182.6495884617487 0
214.5855289470683 134.5495206231198 0
254.5582628807295 154.7259863645907 0
233.1532769316292 162.9028094735172 0
225.7944578329865 174.8223419861141 0
239.7749022232931 176.6619206776584 0
735.9697051159108 109.4499840373964 0
870.1267597837882 21.10876227386426 0
101.7391130456879 143.5602849281437 0
894.3053990952995 26.32821020210783 0
577.7068577927432 119.8801459761566 0
263.4349374341003 145.6739368265358 0
892.2034697007441 47.66037327959647 0
723 122.1542338709677 0
254.0513355710092 132.4844299282382 0
103.2075407535763 118.2198485638806 0
730.2846049387251 31.60119882429774 0
913.2163145716131 170.0885342014816 0
1019.765265568587 46.71351763879181 0
715.4289141871225 176.4130778946853 0
228.5352166254143 112.373094847054 0
493.9055042677815 64.24952206542778 0
392.4518152935511 122.8972927695903 0
229.2714994548033 155.8284586769739 0
657.2664536215194 97.05187047477114 0
252.9036568254187 20.03421356694949 0
389.9058083850554 173.8991583960281 0
787.2191141728551 39.07747130203943 0
798.5536303103447 32.28440597169862 0
639.826745822458 20.26613015632378 0
279.3676409435417 136.0190838932824 0
328.9479166666666 56.53124999999996 0
331.6018918693927 19.1310380803146 0
321.1836196374396 144.4106101386062 0
824.9011133457623 133.2040078700348 0
660.2063482391154 23.51866397835015 0
94.18963343136664 173.6094789218506 0
478.954107553681 123.6727856595092 0
16.26960579467885 59.98198449180495 0
359.2511844958817 21.08702759158517 0
308.9150635094611 125.2810889132455 0
324.0005489522599 125.530265169247 0
278.9645 49.81249999999997 0
101.0296391571652 20.35416467548256 0
564.5710094406861 176.3493678029552 0
762.125 19.66394746768846 0
471.3981207965145 173.8262471993483 0
783.0680761664329 53.78061833612402 0
760.8456691928629 181.4128754687271 0
1030.766451483849 99.32886897537556 0
208.5883417283353 19.76216766919809 0
184.877272592234 20.5408992330817 0
162.7307818460143 23.18825647928858 0
697.0958638568603 24.86866015820867 0
872.3551961385185 130.9389602604711 0
218.4871490760231 167.4047865068787 0
59.76408068961223 177.8874997844795 0
785.8860840186283 66.36277247582147 0
805.2095677349746 38.20573148651008 0
817.4625041822974 139.249734580988 0
325.6462377713239 87.72326144739972 0
228.6458333333334 52.85416666666666 0
520.7428382145958 20.93771434528584 0
497.5930120873636 19.58754286905716 0
278.1578159568135 26.2159201675117 0
784.2544058398571 24.56158350481979 0
1024.062507143336 170.0098059114076 0
252.7590990248894 144.744458150351 0
273.1450407842316 133.9483545067333 0
786.6341908308442 118.6646101501009 0
496.7157939064733 178.0827988906194 0
883.3138087048983 95.56097663495048 0
191.7966221715404 181.8916695360994 0
654.9951668185159 136.0268323618405 0
19.89220660941976 19.88263015643969 0
492.3638503054522 115.0287976099182 0
497.7644341868896 55.19990441308556 0
316.5134006851647 169.8823667577956 0
565.5136343716102 19.2807065742962 0
843.0346844684263 30.05275719829085 0
854.555393922888 30.89113586915282 0
183.9166666666667 55.56249999999999 0
611.0833333333334 83.15732189973608 0
136.0833333333334 83.15732189973608 0
739.9826944537749 175.8651906726825 0
1030.136009111367 144.0254213476153 0
148.8673995036021 176.3320421585386 0
175.4235869738544 165.4097262889491 0
175.3700941925161 150.6221973847467 0
503.6901273462575 145.6559627898793 0
526.6291581064447 175.5659972347102 0
367.1993739933632 180.3886811449811 0
397.9578455247247 40.37797918005081 0
821.7730553135567 170.7069781626242 0
683.3653250114503 177.177537137667 0
258.5617583452403 139.1509684556885 0
805.5341829176008 18.43238844764861 0
273.3287168647155 95.77102347626511 0
230.4150663774174 23.35927624722952 0
406.1559070896147 19.29833025657656 0
739.9939410231822 94.87749680747936 0
24.04745666382496 175.5248492311579 0
372.5787372429318 129.7221970678011 0
700.5787372429318 129.7221970678011 0
274.2753471596887 173.1174739963311 0
919.267040634852 20.45902897288425 0
950.6367872742475 20.9357634985009 0
21.36646633318594 137.9778611917206 0
300.68217352659 20.43282637463773 0
786.2819415692661 181.8119372578903 0
302.9100412971399 136.2133990126843 0
48.41002854044513 20.69862015695963 0
867.4009864517536 179.3915844373817 0
1026.963619508739 71.5903977690279 0
228.6875 81.5625 0
492.713683650699 78.40761364073194 0
273.7611314134455 142.8740379650808 0
622.1677649547814 172.9694532645763 0
649.1027372165942 176.8994984003739 0
1026.275931947253 23.71486262142022 0
718.6394123383998 62.8817756960332 0
732.661784079925 71.12452769519871 0
265.2769237886467 121.0645825622994 0
979.2979714905695 20.17147417260935 0
183.2648009950249 110.375 0
178.1155638352883 132.6477557311269 0
189.0545538573024 135.9233024700076 0
183.2306856371912 144.3624967345057 0
189.2084263714683 147.8118014337907 0
834.4544802893902 156.8557136686674 0
19.03777563561903 99.20915505214805 0
185.3741789796764 172.8238578375167 0
197.6132402233338 170.9150027226937 0
209.1179601634816 181.0217866558143 0
714.8349591512647 17.92865329190273 0
595.9607772665992 175.5152672498305 0
195.333712336768 133.1559525749092 0
863.9667099309568 136.960957173082 0
738.9439410231821 120.8833435816729 0
298.9952095331024 145.7835135198318 0
336.6065481790688 179.5232910883853 0
506.5028123078691 162.4091981162859 0
245.4193347727763 134.4913296641606 0
277.9930448813665 64.88881787314111 0
407.4216878990787 107.4853275385129 0
978.5958803127272 129.4228660597547 0
2 2 0 57
602
603
604
605
606
607
608
609
610
611
612
613
614
615
616
617
618
619
620
621
622
623
624
625
626
627
628
629
630
631
632
633
634
635
636
637
638
639
640
641
642
643
644
645
646
647
648
649
650
651
652
653
654
655
656
657
658
822.6019066661582 98.85848466862205 0
843.2459652428427 102.1678007021789 0
832.4856093014362 59.04526296699022 0
847.6074486113566 67.25843978657925 0
820.4812181429392 81.48580051419769 0
831.7133534150956 104.2823836322617 0
845.3532364318564 88.17991573033721 0
823.3132106894209 66.80856819536642 0
840.1985633842669 60.29913798138244 0
836.4410285380677 104.5352853806769 0
834.4277217079215 100.7832065984491 0
830.5604560981099 100.9923316907272 0
831.3765618278936 96.80065003898419 0
837.1073610058685 97.0230509282145 0
835.1652271901162 92.25047267424367 0
829.3221511139994 91.44372246109646 0
832.3607122283621 86.87884701727047 0
846.4786090019772 78.81253414273608 0
821.2649759294238 73.95726241615131 0
827.3090474049229 72.29050196526492 0
829.4781661594313 67.12542104019796 0
833.2491377737011 71.36846503587822 0
831.3700074574758 76.86777664783423 0
837.1042091059493 75.55014080492094 0
838.6557134329693 70.13123170698773 0
825.824138159711 85.46262689003697 0
823.458670105788 91.19063110572893 0
841.1031607027412 83.04262432341206 0
844.2214394765664 63.72109802363131 0
827.7642526338471 60.1087325131758 0
846.0041537081818 95.21471185182148 0
821.2405532405106 95.32256404831134 0
834.5964710952367 66.37041604871354 0
839.3747144240683 65.10055992782753 0
825.7437343258019 95.44882131767439 0
826.0441963243364 78.70404611156073 0
845.6335361691013 99.57971059387589 0
840.7674302164818 92.91038776011027 0
841.9842736470903 98.04096728380608 0
839.0322066213738 101.1836835508605 0
842.3981115036321 74.21633438875322 0
824.2119704439435 101.7934623497788 0
835.797748487807 81.63512335621178 0
819.7829976002657 87.00836559163267 0
827.8157784251937 103.4424212140218 0
840.7109161815911 104.1522904539776 0
847.4989982510535 71.41477817801523 0
837.3401066210949 58.36925365233569 0
830.0157908515461 82.16030823587923 0
824.4630187057238 61.76186761636261 0
835.7686984651644 61.97237406773934 0
843.2927376166077 68.64040700196571 0
831.0269087413766 62.94411235555053 0
837.9221046033042 87.83318434431338 0
827.0517346311835 99.55602854663472 0
840.5763677604214 78.65135140320682 0
827.20911138596 63.74974034413066 0
$EndNodes
$Elements
2 999 1 999
2 1 2 863
1 289 497 67 
2 66 516 289 
3 65 487 287 
4 86 532 87 
5 313 113 312 
6 282 476 21 
7 504 540 130 
8 18 592 582 
9 98 416 99 
10 83 84 69 
11 299 545 100 
12 99 416 297 
13 128 559 319 
14 82 558 292 
15 503 513 323 
16 409 558 81 
17 410 559 127 
18 100 531 299 
19 213 295 85 
20 107 445 305 
21 10 447 269 
22 370 423 133 
23 76 398 294 
24 414 428 200 
25 116 529 316 
26 472 501 131 
27 217 446 107 
28 256 492 15 
29 458 467 371 
30 104 439 301 
31 7 441 265 
32 363 463 368 
33 511 589 357 
34 15 542 256 
35 155 367 156 
36 385 398 76 
37 375 525 429 
38 322 417 131 
39 373 510 190 
40 22 588 23 
41 327 468 191 
42 358 592 18 
43 371 402 364 
44 54 342 55 
45 195 579 228 
46 396 406 394 
47 383 553 342 
48 214 295 213 
49 202 428 414 
50 386 577 122 
51 395 585 422 
52 355 457 451 
53 524 572 405 
54 264 494 6 
55 310 529 111 
56 442 567 204 
57 452 535 389 
58 346 496 432 
59 51 476 283 
60 469 559 410 
61 478 558 409 
62 308 445 109 
63 272 447 12 
64 252 560 364 
65 324 525 325 
66 322 556 122 
67 119 350 318 
68 21 476 451 
69 296 412 89 
70 70 533 489 
71 350 472 417 
72 402 486 400 
73 199 601 356 
74 383 384 286 
75 37 511 38 
76 488 495 71 
77 406 585 394 
78 228 575 195 
79 365 458 371 
80 195 575 474 
81 402 595 364 
82 279 580 273 
83 392 514 484 
84 15 492 464 
85 117 418 118 
86 252 364 251 
87 356 601 388 
88 291 385 74 
89 318 386 120 
90 88 419 296 
91 526 597 546 
92 423 549 238 
93 156 369 157 
94 234 438 437 
95 402 572 486 
96 106 534 107 
97 364 533 251 
98 478 600 83 
99 1 530 262 
100 115 540 475 
101 253 461 252 
102 107 534 217 
103 18 580 279 
104 470 598 51 
105 83 600 293 
106 115 475 315 
107 253 589 460 
108 319 559 469 
109 389 552 223 
110 292 558 478 
111 542 543 456 
112 202 414 359 
113 31 358 32 
114 238 565 423 
115 363 536 463 
116 89 412 90 
117 521 552 484 
118 357 589 588 
119 374 527 158 
120 249 482 449 
121 58 341 59 
122 325 421 370 
123 422 515 395 
124 460 589 511 
125 73 360 291 
126 332 415 333 
127 88 477 419 
128 451 476 51 
129 581 583 544 
130 46 404 47 
131 398 548 85 
132 101 502 298 
133 262 494 261 
134 416 493 297 
135 10 499 448 
136 238 376 237 
137 388 437 356 
138 342 384 383 
139 209 564 520 
140 72 425 73 
141 543 544 372 
142 432 496 351 
143 442 499 9 
144 87 532 477 
145 69 482 288 
146 20 517 281 
147 284 517 52 
148 235 438 234 
149 234 436 233 
150 18 582 581 
151 576 577 386 
152 220 418 219 
153 413 553 383 
154 406 568 376 
155 311 466 312 
156 334 428 335 
157 313 466 314 
158 432 566 346 
159 414 473 359 
160 378 472 350 
161 286 498 64 
162 279 273 280 
163 277 471 278 
164 314 466 455 
165 455 466 311 
166 233 522 3 
167 249 449 248 
168 229 569 474 
169 275 471 276 
170 236 473 235 
171 62 341 63 
172 446 485 109 
173 405 572 467 
174 429 525 324 
175 23 588 348 
176 523 551 467 
177 493 531 100 
178 234 437 436 
179 460 461 253 
180 221 501 472 
181 122 577 322 
182 36 349 37 
183 60 341 61 
184 238 549 376 
185 104 518 440 
186 407 473 236 
187 544 583 372 
188 231 541 196 
189 448 508 12 
190 7 567 442 
191 254 589 253 
192 41 346 42 
193 38 511 357 
194 240 540 504 
195 153 347 154 
196 391 527 326 
197 349 511 37 
198 343 598 470 
199 328 435 329 
200 353 354 338 
201 240 504 239 
202 526 546 246 
203 255 456 254 
204 192 562 435 
205 561 562 192 
206 465 468 368 
207 165 345 134 
208 224 452 223 
209 273 537 280 
210 43 444 337 
211 204 567 203 
212 309 433 317 
213 507 508 206 
214 327 374 369 
215 359 373 190 
216 467 551 405 
217 343 551 523 
218 117 433 110 
219 360 398 385 
220 218 446 217 
221 232 541 231 
222 222 552 521 
223 422 585 549 
224 365 560 252 
225 28 340 29 
226 355 379 353 
227 220 509 418 
228 417 576 350 
229 435 562 194 
230 288 547 70 
231 206 448 205 
232 366 468 367 
233 306 538 307 
234 270 539 271 
235 231 505 230 
236 371 572 402 
237 215 519 214 
238 71 487 65 
239 301 439 304 
240 265 441 268 
241 298 450 84 
242 3 522 232 
243 440 518 216 
244 230 569 229 
245 368 468 366 
246 283 570 284 
247 376 585 406 
248 337 399 44 
249 502 526 247 
250 150 535 151 
251 202 359 190 
252 239 565 238 
253 53 520 498 
254 498 520 64 
255 281 570 282 
256 351 496 40 
257 380 454 453 
258 348 587 543 
259 14 543 542 
260 420 422 370 
261 269 447 272 
262 305 445 308 
263 262 530 6 
264 458 523 467 
265 417 472 131 
266 376 568 237 
267 365 461 434 
268 464 471 275 
269 137 387 138 
270 51 454 451 
271 451 457 21 
272 278 471 464 
273 223 552 222 
274 165 393 345 
275 164 393 165 
276 107 446 445 
277 396 593 406 
278 195 474 330 
279 52 517 20 
280 235 473 438 
281 137 390 387 
282 35 353 338 
283 210 564 209 
284 241 475 240 
285 10 448 447 
286 247 526 246 
287 547 596 70 
288 6 494 262 
289 370 421 420 
290 136 390 137 
291 367 369 156 
292 379 380 354 
293 390 421 387 
294 319 469 129 
295 58 413 341 
296 336 524 404 
297 207 507 206 
298 314 455 114 
299 163 344 164 
300 112 455 311 
301 141 443 142 
302 18 581 580 
303 404 405 50 
304 364 595 403 
305 206 508 448 
306 350 386 318 
307 287 487 290 
308 196 505 231 
309 297 493 100 
310 15 464 275 
311 439 440 106 
312 93 571 424 
313 441 442 9 
314 118 509 119 
315 380 381 354 
316 371 560 365 
317 112 591 455 
318 208 554 506 
319 208 506 207 
320 350 576 386 
321 140 430 141 
322 341 413 383 
323 74 385 75 
324 120 386 121 
325 423 565 133 
326 65 488 71 
327 278 464 17 
328 292 478 83 
329 337 444 401 
330 216 518 215 
331 5 563 263 
332 45 336 46 
333 276 471 277 
334 70 596 533 
335 380 453 382 
336 151 536 152 
337 546 597 102 
338 225 463 224 
339 500 546 114 
340 31 426 358 
341 424 571 300 
342 243 574 242 
343 436 522 233 
344 437 438 356 
345 122 556 123 
346 492 512 17 
347 191 561 192 
348 154 366 155 
349 101 526 502 
350 104 440 439 
351 432 497 489 
352 7 442 441 
353 246 546 245 
354 369 374 157 
355 573 574 243 
356 404 524 405 
357 472 590 221 
358 317 480 309 
359 296 419 412 
360 219 485 218 
361 228 579 227 
362 356 438 414 
363 91 412 92 
364 236 568 407 
365 331 505 196 
366 364 560 371 
367 142 513 143 
368 418 491 219 
369 217 534 216 
370 310 480 316 
371 204 499 442 
372 434 458 365 
373 135 339 136 
374 256 542 255 
375 35 338 36 
376 445 446 109 
377 336 404 46 
378 20 554 52 
379 285 599 384 
380 358 457 32 
381 199 356 200 
382 447 448 12 
383 196 361 197 
384 373 407 406 
385 85 555 213 
386 450 502 247 
387 211 488 210 
388 245 500 244 
389 222 501 221 
390 475 540 240 
391 218 485 446 
392 203 530 1 
393 139 429 140 
394 359 473 407 
395 205 499 204 
396 367 468 327 
397 226 561 225 
398 209 481 208 
399 248 450 247 
400 477 571 419 
401 283 476 282 
402 356 414 200 
403 9 499 10 
404 345 490 134 
405 211 495 488 
406 134 490 135 
407 360 385 291 
408 557 563 5 
409 109 485 110 
410 361 388 197 
411 135 490 339 
412 227 562 226 
413 221 590 220 
414 261 586 260 
415 438 473 414 
416 212 495 211 
417 245 546 500 
418 244 591 243 
419 463 465 368 
420 463 536 452 
421 53 498 285 
422 404 578 47 
423 111 529 116 
424 158 527 159 
425 14 542 15 
426 34 355 353 
427 462 594 469 
428 448 499 205 
429 133 504 130 
430 420 515 422 
431 455 591 500 
432 436 437 388 
433 354 479 338 
434 308 538 305 
435 272 539 269 
436 290 516 287 
437 114 546 102 
438 464 492 17 
439 119 378 350 
440 384 599 286 
441 405 470 50 
442 326 527 374 
443 263 586 264 
444 123 556 462 
445 237 568 236 
446 322 577 417 
447 257 492 256 
448 512 557 5 
449 355 451 379 
450 17 512 5 
451 191 468 465 
452 395 490 345 
453 425 495 212 
454 455 500 114 
455 563 586 263 
456 582 583 581 
457 19 506 20 
458 475 550 315 
459 259 557 4 
460 242 550 241 
461 57 413 58 
462 359 407 373 
463 337 400 399 
464 530 567 6 
465 251 596 250 
466 250 547 249 
467 260 586 563 
468 434 461 459 
469 84 450 449 
470 406 593 373 
471 421 525 387 
472 300 571 477 
473 4 557 258 
474 462 469 124 
475 260 563 259 
476 258 512 257 
477 312 466 313 
478 103 518 104 
479 72 495 425 
480 34 353 35 
481 469 594 129 
482 93 424 94 
483 159 391 160 
484 298 502 450 
485 281 517 284 
486 111 573 112 
487 520 564 64 
488 361 436 388 
489 341 383 63 
490 419 571 93 
491 327 369 367 
492 55 342 56 
493 73 425 360 
494 316 529 310 
495 397 411 190 
496 54 384 342 
497 562 579 194 
498 12 508 13 
499 50 578 404 
500 213 555 212 
501 52 481 53 
502 13 507 19 
503 131 501 132 
504 261 494 264 
505 382 523 458 
506 212 555 425 
507 325 525 421 
508 379 454 380 
509 340 427 29 
510 56 553 57 
511 153 363 347 
512 481 520 53 
513 346 444 42 
514 343 523 453 
515 100 545 101 
516 163 377 344 
517 470 551 343 
518 162 377 163 
519 28 584 340 
520 143 362 144 
521 229 575 2 
522 144 408 145 
523 340 584 583 
524 315 550 116 
525 161 397 162 
526 284 570 281 
527 440 534 106 
528 380 382 381 
529 116 574 111 
530 366 367 155 
531 41 496 346 
532 282 570 283 
533 110 491 117 
534 84 449 69 
535 33 355 34 
536 339 390 136 
537 64 564 65 
538 6 567 7 
539 257 512 492 
540 143 513 362 
541 259 563 557 
542 394 395 345 
543 377 593 344 
544 393 394 345 
545 59 341 60 
546 459 460 349 
547 226 562 561 
548 19 537 13 
549 339 420 390 
550 353 379 354 
551 474 569 330 
552 78 600 478 
553 255 542 456 
554 351 497 432 
555 460 511 349 
556 29 427 30 
557 2 575 228 
558 145 352 146 
559 258 557 512 
560 129 594 320 
561 86 519 103 
562 330 569 331 
563 45 399 336 
564 42 444 43 
565 344 393 164 
566 243 591 573 
567 264 586 261 
568 484 552 392 
569 405 551 470 
570 449 450 248 
571 197 601 415 
572 388 601 197 
573 430 443 141 
574 337 401 400 
575 130 540 115 
576 241 550 475 
577 346 566 444 
578 454 598 453 
579 382 458 434 
580 111 574 573 
581 443 513 142 
582 429 430 140 
583 340 583 582 
584 194 579 195 
585 146 514 147 
586 117 491 418 
587 133 565 504 
588 361 522 436 
589 407 568 406 
590 196 541 361 
591 422 423 370 
592 393 396 394 
593 242 574 550 
594 550 574 116 
595 399 486 336 
596 449 482 69 
597 138 387 375 
598 425 555 548 
599 360 548 398 
600 33 457 355 
601 203 567 530 
602 162 397 377 
603 47 578 48 
604 444 566 401 
605 403 533 364 
606 44 399 45 
607 418 509 118 
608 490 515 339 
609 456 528 254 
610 138 375 139 
611 331 569 505 
612 453 598 343 
613 431 566 432 
614 145 408 352 
615 32 457 33 
616 482 547 288 
617 159 527 391 
618 160 411 161 
619 152 536 363 
620 147 392 148 
621 415 601 199 
622 103 532 86 
623 347 366 154 
624 101 597 526 
625 52 554 481 
626 95 531 493 
627 152 363 153 
628 349 479 459 
629 286 599 498 
630 40 496 41 
631 451 454 379 
632 190 510 397 
633 505 569 230 
634 65 564 488 
635 362 408 144 
636 506 554 20 
637 149 389 150 
638 420 421 390 
639 299 531 424 
640 484 514 352 
641 30 426 31 
642 339 515 420 
643 348 588 587 
644 459 479 381 
645 533 596 251 
646 347 368 366 
647 548 555 85 
648 486 524 336 
649 397 510 377 
650 408 483 352 
651 395 515 490 
652 465 561 191 
653 352 514 146 
654 400 486 399 
655 338 349 36 
656 382 434 381 
657 381 479 354 
658 485 491 110 
659 389 535 150 
660 434 459 381 
661 30 427 426 
662 535 536 151 
663 483 484 352 
664 19 507 506 
665 38 357 39 
666 338 479 349 
667 391 411 160 
668 340 582 427 
669 216 534 440 
670 401 402 400 
671 227 579 562 
672 362 503 408 
673 375 429 139 
674 161 411 397 
675 249 547 482 
676 432 489 431 
677 219 491 485 
678 486 572 524 
679 431 489 403 
680 394 585 395 
681 580 581 274 
682 453 523 382 
683 25 372 26 
684 222 521 501 
685 209 520 481 
686 250 596 547 
687 501 521 132 
688 549 585 376 
689 467 572 371 
690 422 549 423 
691 13 508 507 
692 573 591 112 
693 387 525 375 
694 344 593 396 
695 361 541 522 
696 424 531 94 
697 344 396 393 
698 103 519 518 
699 474 575 229 
700 566 595 401 
701 324 430 429 
702 459 461 460 
703 27 584 28 
704 147 514 392 
705 342 553 56 
706 462 556 321 
707 483 503 132 
708 132 521 483 
709 119 509 378 
710 408 503 483 
711 483 521 484 
712 224 463 452 
713 225 561 465 
714 23 348 24 
715 498 599 285 
716 481 554 208 
717 417 577 576 
718 225 465 463 
719 528 589 254 
720 57 553 413 
721 504 565 239 
722 378 590 472 
723 51 598 454 
724 545 597 101 
725 427 592 426 
726 582 592 427 
727 425 548 360 
728 488 564 210 
729 456 587 528 
730 500 591 244 
731 510 593 377 
732 323 513 443 
733 79 409 80 
734 125 410 126 
735 401 595 402 
736 543 587 456 
737 522 541 232 
738 96 416 97 
739 588 589 528 
740 518 519 215 
741 506 507 207 
742 14 544 543 
743 81 558 82 
744 127 559 128 
745 373 593 510 
746 403 595 431 
747 431 595 566 
748 123 462 124 
749 220 590 509 
750 87 477 88 
751 77 600 78 
752 102 597 545 
753 94 531 95 
754 452 536 535 
755 587 588 528 
756 509 590 378 
757 268 441 9 
758 13 537 273 
759 274 581 14 
760 14 581 544 
761 280 537 19 
762 43 337 44 
763 48 578 49 
764 50 470 51 
765 63 383 286 
766 287 516 66 
767 290 487 71 
768 75 385 76 
769 80 409 81 
770 83 293 84 
771 90 412 91 
772 92 412 93 
773 97 416 98 
774 102 545 299 
775 304 439 106 
776 110 433 309 
777 317 433 117 
778 121 386 122 
779 126 410 127 
780 132 503 323 
781 190 411 391 
782 192 435 328 
783 329 435 194 
784 197 415 332 
785 333 415 199 
786 200 428 334 
787 335 428 202 
788 269 539 270 
789 271 539 272 
790 273 580 274 
791 293 600 294 
792 299 424 300 
793 477 532 300 
794 305 538 306 
795 307 538 308 
796 309 480 310 
797 316 480 317 
798 320 594 321 
799 321 556 322 
800 321 594 462 
801 323 443 430 
802 326 374 327 
803 267 8 266 
804 271 11 270 
805 277 16 276 
806 21 358 18 
807 21 457 358 
808 39 357 22 
809 357 588 22 
810 24 372 25 
811 348 372 24 
812 26 372 27 
813 372 584 27 
814 68 351 40 
815 49 578 50 
816 285 384 54 
817 61 341 62 
818 67 66 289 
819 67 497 68 
820 68 497 351 
821 70 497 289 
822 489 497 70 
823 71 495 72 
824 76 600 77 
825 294 600 76 
826 78 409 79 
827 78 478 409 
828 294 398 85 
829 86 295 214 
830 214 519 86 
831 412 419 93 
832 95 416 96 
833 95 493 416 
834 300 532 103 
835 303 105 302 
836 307 108 306 
837 320 115 129 
838 130 115 320 
839 124 410 125 
840 124 469 410 
841 325 370 133 
842 148 389 149 
843 148 392 389 
844 157 374 158 
845 190 391 326 
846 328 329 193 
847 332 333 198 
848 334 335 201 
849 223 452 389 
850 252 461 365 
851 265 267 266 
852 268 267 265 
853 289 516 290 
854 302 301 303 
855 303 301 304 
856 323 430 324 
857 363 368 347 
858 348 543 372 
859 426 592 358 
860 362 513 503 
861 583 584 372 
862 392 552 389 
863 489 533 403 
2 2 2 136
864 169 603 168 
865 627 637 606 
866 619 629 608 
867 172 608 171 
868 166 611 607 
869 605 648 174 
870 620 621 609 
871 185 633 628 
872 182 620 609 
873 602 636 633 
874 627 650 637 
875 614 656 613 
876 636 656 614 
877 608 632 171 
878 606 645 627 
879 171 632 170 
880 167 647 611 
881 605 653 648 
882 182 609 181 
883 174 648 173 
884 628 645 185 
885 172 619 608 
886 621 622 609 
887 648 653 642 
888 184 606 183 
889 617 636 614 
890 608 655 639 
891 604 649 178 
892 179 631 604 
893 633 636 628 
894 629 655 608 
895 610 652 635 
896 188 643 187 
897 611 612 607 
898 606 620 183 
899 609 651 181 
900 619 657 629 
901 177 610 176 
902 621 623 622 
903 626 634 623 
904 632 638 170 
905 623 634 622 
906 627 645 628 
907 175 630 605 
908 625 626 623 
909 611 641 612 
910 610 630 176 
911 627 628 617 
912 618 627 617 
913 610 635 630 
914 621 624 623 
915 624 625 623 
916 603 647 168 
917 189 646 188 
918 606 637 620 
919 166 607 189 
920 620 637 621 
921 612 641 615 
922 184 645 606 
923 612 613 607 
924 618 655 644 
925 622 658 609 
926 646 656 643 
927 602 656 636 
928 634 654 622 
929 613 656 646 
930 628 636 617 
931 635 652 634 
932 642 653 626 
933 616 618 617 
934 626 635 634 
935 616 617 614 
936 180 631 179 
937 630 653 605 
938 185 645 184 
939 621 637 624 
940 652 654 634 
941 611 647 641 
942 644 655 629 
943 625 642 626 
944 175 605 174 
945 635 653 630 
946 612 615 614 
947 649 652 610 
948 187 602 186 
949 612 614 613 
950 604 652 649 
951 613 646 607 
952 624 644 625 
953 181 651 180 
954 637 650 624 
955 187 643 602 
956 608 639 632 
957 615 616 614 
958 170 638 169 
959 607 646 189 
960 640 641 603 
961 618 650 627 
962 615 639 616 
963 639 640 632 
964 609 658 651 
965 177 649 610 
966 615 640 639 
967 638 640 603 
968 169 638 603 
969 632 640 638 
970 168 647 167 
971 643 656 602 
972 644 657 625 
973 602 633 186 
974 631 654 604 
975 644 650 618 
976 629 657 644 
977 641 647 603 
978 615 641 640 
979 178 649 177 
980 604 654 652 
981 619 648 642 
982 616 655 618 
983 624 650 644 
984 180 651 631 
985 626 653 635 
986 639 655 616 
987 188 646 643 
988 642 657 619 
989 625 657 642 
990 631 658 654 
991 651 658 631 
992 654 658 622 
993 176 630 175 
994 179 604 178 
995 186 633 185 
996 167 611 166 
997 173 619 172 
998 173 648 619 
999 183 620 182 
$EndElements
